<svg xmlns="http://www.w3.org/2000/svg" width="42.636" height="33.162" viewBox="0 0 42.636 33.162">
  <path id="Icon_awesome-cc-apple-pay" data-name="Icon awesome-cc-apple-pay" d="M22.369,16.051a1.891,1.891,0,0,1-2.147,2.006h-1.8V14.045H20.23A1.885,1.885,0,0,1,22.369,16.051Zm3.516,4.634c0,.614.533,1.014,1.369,1.014a1.7,1.7,0,0,0,1.865-1.621v-.57l-1.74.111C26.4,19.686,25.885,20.049,25.885,20.685ZM42.636,5.733V31.788a3.554,3.554,0,0,1-3.553,3.553H3.553A3.554,3.554,0,0,1,0,31.788V5.733A3.554,3.554,0,0,1,3.553,2.18h35.53A3.554,3.554,0,0,1,42.636,5.733ZM9.46,14.482a2.051,2.051,0,0,0,1.636-.77,2.443,2.443,0,0,0,.57-1.754,2.434,2.434,0,0,0-1.621.836,2.322,2.322,0,0,0-.585,1.688ZM13.946,20a2.442,2.442,0,0,1-1.466-2.221,2.492,2.492,0,0,1,1.184-2.087A2.548,2.548,0,0,0,11.658,14.6c-.9-.052-1.673.511-2.1.511s-1.088-.489-1.8-.474A2.655,2.655,0,0,0,5.5,16.014c-.97,1.673-.252,4.145.688,5.507.459.674,1.014,1.414,1.74,1.384.688-.03.962-.444,1.791-.444s1.073.444,1.8.437c.755-.015,1.221-.674,1.688-1.347A6.265,6.265,0,0,0,13.946,20Zm10.023-3.953a3.169,3.169,0,0,0-3.324-3.316h-3.79v10.1h1.569V19.375h2.169a3.206,3.206,0,0,0,3.375-3.331ZM30.63,17.8c0-1.458-1.17-2.4-2.961-2.4-1.665,0-2.894.955-2.939,2.258h1.414a1.377,1.377,0,0,1,1.48-1.029c.962,0,1.5.444,1.5,1.273v.555l-1.954.118c-1.821.111-2.805.859-2.805,2.154a2.219,2.219,0,0,0,2.472,2.176,2.584,2.584,0,0,0,2.309-1.288h.03v1.214h1.451V17.8ZM38.2,15.5H36.6l-1.843,5.966h-.03L32.888,15.5H31.237l2.657,7.35-.141.444a1.25,1.25,0,0,1-1.325,1.051c-.126,0-.363-.015-.459-.022v1.214a3.835,3.835,0,0,0,.6.037c1.532,0,2.25-.585,2.879-2.354Z" transform="translate(0 -2.18)" fill="#fefefe"/>
</svg>
