<svg xmlns="http://www.w3.org/2000/svg" width="56" height="55.993" viewBox="0 0 56 55.993">
  <path id="noun-call-3849159" d="M211.9,128.941l-8.771-8.771h0a5.787,5.787,0,0,0-8.181,0l-4.239,4.239c-.851-.1-3.463-.844-8.242-5.624-4.891-4.891-5.542-7.5-5.653-8.213l4.261-4.265h0a5.791,5.791,0,0,0,0-8.181l-8.767-8.777a5.827,5.827,0,0,0-8.151-.039,19.024,19.024,0,0,0-5.878,8.744c-2.582,10,2.113,22.5,12.253,32.656a40.029,40.029,0,0,0,26.992,12.95,22.59,22.59,0,0,0,5.663-.7,19.023,19.023,0,0,0,8.751-5.869,5.829,5.829,0,0,0-.039-8.154Zm-2.3,5.869a15.756,15.756,0,0,1-7.228,4.995c-8.882,2.282-20.214-2.077-29.535-11.411s-13.693-20.648-11.411-29.535h0a15.759,15.759,0,0,1,5.005-7.209,2.576,2.576,0,0,1,1.793-.724,2.5,2.5,0,0,1,1.78.731l8.771,8.771h0a2.527,2.527,0,0,1,0,3.586l-4.669,4.656a1.627,1.627,0,0,0-.384.6c-.326.929-.848,4.522,6.446,11.812s10.886,6.778,11.812,6.446h0a1.627,1.627,0,0,0,.6-.384l4.672-4.669h0a2.526,2.526,0,0,1,3.57,0l8.771,8.771h0a2.556,2.556,0,0,1,.007,3.573Z" transform="translate(-157.583 -87.668)" fill="#fff"/>
</svg>
