<svg xmlns="http://www.w3.org/2000/svg" width="33.054" height="24.449" viewBox="0 0 33.054 24.449">
  <path id="noun-email-3847385" d="M158.4,116.926H133.738a4.2,4.2,0,0,0-4.2,4.2v16.053h0a4.2,4.2,0,0,0,4.2,4.2H158.4a4.2,4.2,0,0,0,4.2-4.2V121.124a4.2,4.2,0,0,0-4.2-4.2Zm2.519,20.251h0A2.519,2.519,0,0,1,158.4,139.7H133.738a2.519,2.519,0,0,1-2.519-2.519V121.124a2.519,2.519,0,0,1,2.519-2.519H158.4a2.519,2.519,0,0,1,2.519,2.519Zm-1.725-13.332a.84.84,0,0,1-.391,1.122l-12.368,5.944h0a.847.847,0,0,1-.729,0l-12.368-5.944h0a.84.84,0,0,1,.729-1.511l12,5.766,12-5.77h0a.84.84,0,0,1,1.12.393Z" transform="translate(-129.54 -116.926)" fill="#fff"/>
</svg>
