<svg xmlns="http://www.w3.org/2000/svg" xmlns:xlink="http://www.w3.org/1999/xlink" width="165.281" height="67.821" viewBox="0 0 165.281 67.821">
  <defs>
    <clipPath id="clip-path">
      <rect id="Rectangle_3731" data-name="Rectangle 3731" width="165.281" height="67.821" fill="#fff"/>
    </clipPath>
  </defs>
  <g id="Group_6752" data-name="Group 6752" transform="translate(0 0)">
    <path id="Path_3669" data-name="Path 3669" d="M49.962.314V19.909H29.8V.314H18.111V50.9H29.8V30.168H49.962V50.9H61.646V.314Z" transform="translate(2.2 0.038)" fill="#fff"/>
    <g id="Group_6756" data-name="Group 6756" transform="translate(0 0)">
      <g id="Group_6755" data-name="Group 6755" clip-path="url(#clip-path)">
        <path id="Path_3670" data-name="Path 3670" d="M85.739,30.941A32.524,32.524,0,0,1,85.2,25.1a31.686,31.686,0,0,1,.218-3.633H74L73.987.313A11.657,11.657,0,0,0,62.33,11.97V50.9H74.016L74,30.941Z" transform="translate(7.573 0.038)" fill="#fff"/>
        <path id="Path_3671" data-name="Path 3671" d="M85.739,30.941A32.524,32.524,0,0,1,85.2,25.1a31.686,31.686,0,0,1,.218-3.633H74L73.987.313A11.657,11.657,0,0,0,62.33,11.97V50.9H74.016L74,30.941Z" transform="translate(7.573 0.038)" fill="#fff"/>
        <path id="Path_3672" data-name="Path 3672" d="M124.714,33.9a9.716,9.716,0,0,1-2.884,4.023,12.609,12.609,0,0,1-4.095,2.244,14.126,14.126,0,0,1-4.345.712,12.067,12.067,0,0,1-5.483-1.247,12.727,12.727,0,0,1-4.238-3.381A15.358,15.358,0,0,1,101,31.335a18.127,18.127,0,0,1-.925-5.768,19.409,19.409,0,0,1,.783-5.412,15.335,15.335,0,0,1,2.422-4.914,12.114,12.114,0,0,1,4.13-3.525,12.321,12.321,0,0,1,5.84-1.318,16.53,16.53,0,0,1,4.309.606,11.345,11.345,0,0,1,4.13,2.1,10.363,10.363,0,0,1,3.027,4.2l8.973-6.267a19.81,19.81,0,0,0-7.8-7.976A24.029,24.029,0,0,0,113.531,0a25.209,25.209,0,0,0-10.682,2.171,24.374,24.374,0,0,0-7.976,5.8A25.764,25.764,0,0,0,88.45,21.507a24.72,24.72,0,0,0-.27,3.633,25.5,25.5,0,0,0,.483,4.936A26.679,26.679,0,0,0,90,34.646a27.761,27.761,0,0,0,5.126,8.4,25.244,25.244,0,0,0,7.907,5.982,22.651,22.651,0,0,0,10.077,2.243,27.607,27.607,0,0,0,8.51-1.388,25.158,25.158,0,0,0,7.727-4.024,15.045,15.045,0,0,0,4.913-6.338Z" transform="translate(10.713 0)" fill="#fff"/>
        <path id="Path_3673" data-name="Path 3673" d="M124.714,33.9a9.716,9.716,0,0,1-2.884,4.023,12.609,12.609,0,0,1-4.095,2.244,14.126,14.126,0,0,1-4.345.712,12.067,12.067,0,0,1-5.483-1.247,12.727,12.727,0,0,1-4.238-3.381A15.358,15.358,0,0,1,101,31.335a18.127,18.127,0,0,1-.925-5.768,19.409,19.409,0,0,1,.783-5.412,15.335,15.335,0,0,1,2.422-4.914,12.114,12.114,0,0,1,4.13-3.525,12.321,12.321,0,0,1,5.84-1.318,16.53,16.53,0,0,1,4.309.606,11.345,11.345,0,0,1,4.13,2.1,10.363,10.363,0,0,1,3.027,4.2l8.973-6.267a19.81,19.81,0,0,0-7.8-7.976A24.029,24.029,0,0,0,113.531,0a25.209,25.209,0,0,0-10.682,2.171,24.374,24.374,0,0,0-7.976,5.8A25.764,25.764,0,0,0,88.45,21.507a24.72,24.72,0,0,0-.27,3.633,25.5,25.5,0,0,0,.483,4.936A26.679,26.679,0,0,0,90,34.646a27.761,27.761,0,0,0,5.126,8.4,25.244,25.244,0,0,0,7.907,5.982,22.651,22.651,0,0,0,10.077,2.243,27.607,27.607,0,0,0,8.51-1.388,25.158,25.158,0,0,0,7.727-4.024,15.045,15.045,0,0,0,4.913-6.338Z" transform="translate(10.713 0)" fill="#fff"/>
        <path id="Path_3693" data-name="Path 3693" d="M87.155,10.568a33.081,33.081,0,0,1,5.006-7.3C93.077,2.25,95.245.313,95.245.313H75.064V10.568Z" transform="translate(9.12 0.038)" fill="#fff"/>
      </g>
    </g>
  </g>
</svg>
