<svg id="Instagram" xmlns="http://www.w3.org/2000/svg" width="27.216" height="27.216" viewBox="0 0 27.216 27.216">
  <path id="Path_3" data-name="Path 3" d="M13.608,2.419a41.726,41.726,0,0,1,5.443.151,7.013,7.013,0,0,1,2.57.454,5.31,5.31,0,0,1,2.57,2.57,7.013,7.013,0,0,1,.454,2.57c0,1.361.151,1.814.151,5.443a41.726,41.726,0,0,1-.151,5.443,7.013,7.013,0,0,1-.454,2.57,5.31,5.31,0,0,1-2.57,2.57,7.013,7.013,0,0,1-2.57.454c-1.361,0-1.814.151-5.443.151a41.726,41.726,0,0,1-5.443-.151,7.013,7.013,0,0,1-2.57-.454,5.31,5.31,0,0,1-2.57-2.57,7.013,7.013,0,0,1-.454-2.57c0-1.361-.151-1.814-.151-5.443A41.725,41.725,0,0,1,2.57,8.165a7.013,7.013,0,0,1,.454-2.57A5.43,5.43,0,0,1,4.082,4.082,2.556,2.556,0,0,1,5.594,3.024a7.013,7.013,0,0,1,2.57-.454,41.725,41.725,0,0,1,5.443-.151m0-2.419A44.676,44.676,0,0,0,8.014.151a9.335,9.335,0,0,0-3.326.6A5.919,5.919,0,0,0,2.268,2.268,5.919,5.919,0,0,0,.756,4.687a6.889,6.889,0,0,0-.6,3.326A44.676,44.676,0,0,0,0,13.608,44.676,44.676,0,0,0,.151,19.2a9.335,9.335,0,0,0,.6,3.326,5.919,5.919,0,0,0,1.512,2.419A5.919,5.919,0,0,0,4.687,26.46a9.335,9.335,0,0,0,3.326.6,44.676,44.676,0,0,0,5.594.151,44.676,44.676,0,0,0,5.594-.151,9.335,9.335,0,0,0,3.326-.6,6.344,6.344,0,0,0,3.931-3.931,9.335,9.335,0,0,0,.6-3.326c0-1.512.151-1.966.151-5.594a44.676,44.676,0,0,0-.151-5.594,9.335,9.335,0,0,0-.6-3.326,5.919,5.919,0,0,0-1.512-2.419A5.919,5.919,0,0,0,22.529.756,9.335,9.335,0,0,0,19.2.151,44.676,44.676,0,0,0,13.608,0m0,6.653a6.843,6.843,0,0,0-6.955,6.955,6.955,6.955,0,1,0,6.955-6.955m0,11.491a4.455,4.455,0,0,1-4.536-4.536,4.455,4.455,0,0,1,4.536-4.536,4.455,4.455,0,0,1,4.536,4.536,4.455,4.455,0,0,1-4.536,4.536M20.866,4.687A1.663,1.663,0,1,0,22.529,6.35a1.678,1.678,0,0,0-1.663-1.663" transform="translate(0 0)" fill="#fff" fill-rule="evenodd"/>
</svg>
