<svg xmlns="http://www.w3.org/2000/svg" width="49.744" height="33.162" viewBox="0 0 49.744 33.162">
  <path id="Icon_metro-mastercard" data-name="Icon metro-mastercard" d="M17.058,27.669h-.281q-1.015,0-1.015.691,0,.475.432.475a.721.721,0,0,0,.6-.324A1.5,1.5,0,0,0,17.058,27.669Zm8.528-.777h1.339v-.065a.332.332,0,0,0,.011-.14q-.011-.054-.022-.151a.607.607,0,0,0-.043-.173.449.449,0,0,0-.1-.14.53.53,0,0,0-.162-.108.616.616,0,0,0-.248-.043q-.6,0-.777.82Zm11.659.777h-.259q-1.036,0-1.036.691,0,.475.432.475a.721.721,0,0,0,.6-.324A1.5,1.5,0,0,0,37.244,27.669Zm6.887-.561q0-.885-.648-.885a.766.766,0,0,0-.669.432,2.114,2.114,0,0,0-.259,1.1q0,.907.6.907a.8.8,0,0,0,.7-.432A2.092,2.092,0,0,0,44.132,27.108Zm-31.2-3.044h1.878l-.95,5.657H12.653l.691-4.34-1.533,4.34h-.842L10.883,25.4l-.734,4.318H9l.95-5.657H11.7l.043,3.519Zm5.462,2.31q0,.13-.086.907-.345,2.181-.367,2.44H16.928l.022-.475a1.484,1.484,0,0,1-1.252.561,1.042,1.042,0,0,1-.81-.345,1.3,1.3,0,0,1-.313-.907,1.6,1.6,0,0,1,.561-1.306,2.407,2.407,0,0,1,1.576-.464,4.656,4.656,0,0,1,.5.022.606.606,0,0,1,.011-.119q.011-.054.022-.1a.3.3,0,0,0,.011-.065q0-.432-.777-.432a4.013,4.013,0,0,0-1.274.216q0-.086.151-1.036a5.289,5.289,0,0,1,1.447-.238q1.6,0,1.6,1.339Zm3.368-1.252-.173,1.058a6.577,6.577,0,0,0-.885-.065q-.583,0-.583.367a.329.329,0,0,0,.1.259,1.952,1.952,0,0,0,.464.237,1.356,1.356,0,0,1,.864,1.3q0,1.554-1.878,1.533a5.23,5.23,0,0,1-1.252-.13q0-.043.151-1.058a4.212,4.212,0,0,0,1.1.173q.691,0,.691-.41a.336.336,0,0,0-.1-.248,1.93,1.93,0,0,0-.464-.27,1.372,1.372,0,0,1-.928-1.274q0-1.554,1.814-1.554A5.636,5.636,0,0,1,21.764,25.121Zm1.9,0h.6l-.151,1.123h-.626q-.043.367-.14.874t-.151.831a3.831,3.831,0,0,0-.054.389q0,.345.41.345a1.42,1.42,0,0,0,.345-.043l-.173,1.015a2.731,2.731,0,0,1-.864.151q-.928,0-.972-1.015a9.333,9.333,0,0,1,.173-1.209q.065-.432.54-3.152h1.187ZM28.047,26.7A4.838,4.838,0,0,1,27.9,27.82H25.5a.739.739,0,0,0,.216.712,1.24,1.24,0,0,0,.82.237,2.767,2.767,0,0,0,1.252-.3l-.194,1.166a4.78,4.78,0,0,1-1.231.173,1.813,1.813,0,0,1-2.051-2.051,3.1,3.1,0,0,1,.594-1.954,1.823,1.823,0,0,1,1.5-.766,1.6,1.6,0,0,1,1.2.453,1.656,1.656,0,0,1,.443,1.209Zm3-1.6a5.091,5.091,0,0,0-.475,1.339q-.475-.043-.669.518a21.854,21.854,0,0,0-.54,2.764H28.155l.065-.3q.475-2.807.626-4.3h1.1l-.065.712a2.577,2.577,0,0,1,.551-.637.714.714,0,0,1,.615-.1Zm4.037-.885-.194,1.231a2.465,2.465,0,0,0-1.079-.3,1.31,1.31,0,0,0-1.1.594,2.523,2.523,0,0,0-.432,1.522,1.591,1.591,0,0,0,.291,1.015,1,1,0,0,0,.831.367,2.441,2.441,0,0,0,1.036-.281l-.216,1.274a3.981,3.981,0,0,1-1.079.173,1.941,1.941,0,0,1-1.544-.659,2.622,2.622,0,0,1-.572-1.781,3.842,3.842,0,0,1,.766-2.472,2.414,2.414,0,0,1,1.976-.961,3.871,3.871,0,0,1,1.317.281Zm3.5,2.159a5.607,5.607,0,0,1-.086.907q-.281,1.706-.367,2.44h-.993l.022-.475a1.508,1.508,0,0,1-1.274.561,1.01,1.01,0,0,1-.8-.345,1.327,1.327,0,0,1-.3-.907,1.615,1.615,0,0,1,.551-1.306,2.362,2.362,0,0,1,1.565-.464,4.3,4.3,0,0,1,.5.022,1.026,1.026,0,0,0,.043-.281q0-.432-.777-.432a4.013,4.013,0,0,0-1.274.216q0-.086.173-1.036a5.289,5.289,0,0,1,1.447-.238q1.576,0,1.576,1.339ZM41.627,25.1a4.16,4.16,0,0,0-.453,1.339.622.622,0,0,0-.68.5,24.341,24.341,0,0,0-.551,2.785H38.734l.065-.3q.41-2.245.626-4.3h1.123a4.38,4.38,0,0,1-.086.712,2.9,2.9,0,0,1,.572-.637.676.676,0,0,1,.594-.1Zm3.044-1.036H45.88l-.928,5.657H43.808l.065-.41a1.549,1.549,0,0,1-1.123.5,1.281,1.281,0,0,1-1.069-.518,2.2,2.2,0,0,1-.4-1.382,3.358,3.358,0,0,1,.594-1.986,1.7,1.7,0,0,1,1.393-.842,1.4,1.4,0,0,1,1.144.626Zm2.4,2.807A11.745,11.745,0,0,0,28.241,17.5a12.379,12.379,0,0,1,3.692,6.132H30.854a11.625,11.625,0,0,0-3.411-5.462,11.625,11.625,0,0,0-3.411,5.462H22.952A12.379,12.379,0,0,1,26.643,17.5,11.751,11.751,0,0,0,9.382,20.976a11.754,11.754,0,0,0,4.275,16.063,11.792,11.792,0,0,0,12.986-.8,12.417,12.417,0,0,1-3.562-5.7h1.079a11.528,11.528,0,0,0,3.282,5.031,11.528,11.528,0,0,0,3.282-5.031H31.8a12.417,12.417,0,0,1-3.562,5.7,11.725,11.725,0,0,0,18.827-9.37Zm5.246-13.818V40.688a2.8,2.8,0,0,1-2.764,2.764H5.334a2.656,2.656,0,0,1-1.943-.82,2.656,2.656,0,0,1-.82-1.943V13.053a2.656,2.656,0,0,1,.82-1.943,2.656,2.656,0,0,1,1.943-.82H49.551a2.8,2.8,0,0,1,2.764,2.764Z" transform="translate(-2.571 -10.289)" fill="#fefefe"/>
</svg>
