<svg xmlns="http://www.w3.org/2000/svg" width="42.636" height="33.162" viewBox="0 0 42.636 33.162">
  <path id="Icon_awesome-cc-paypal" data-name="Icon awesome-cc-paypal" d="M13.79,18.994a1.588,1.588,0,0,1-1.628,1.591,1.069,1.069,0,0,1-1.184-1.11,1.605,1.605,0,0,1,1.606-1.628A1.112,1.112,0,0,1,13.79,18.994ZM5.959,15.4H5.611a.232.232,0,0,0-.237.2L5.056,17.58l.607-.022c.814,0,1.443-.111,1.591-1.051C7.424,15.515,6.8,15.4,5.959,15.4Zm21.022,0h-.333a.218.218,0,0,0-.237.2L26.1,17.58l.592-.022c.962,0,1.628-.222,1.628-1.332C28.313,15.441,27.61,15.4,26.981,15.4ZM42.636,5.8V31.859a3.554,3.554,0,0,1-3.553,3.553H3.553A3.554,3.554,0,0,1,0,31.859V5.8A3.554,3.554,0,0,1,3.553,2.25h35.53A3.554,3.554,0,0,1,42.636,5.8ZM9.5,15.826c0-1.554-1.2-2.073-2.569-2.073H3.968a.391.391,0,0,0-.385.348L2.369,21.659a.255.255,0,0,0,.237.3H4.012a.472.472,0,0,0,.407-.422l.333-1.969c.074-.533.977-.348,1.332-.348A3.13,3.13,0,0,0,9.5,15.826Zm6.233.651H14.323c-.281,0-.3.407-.311.607a1.89,1.89,0,0,0-1.754-.74,3.3,3.3,0,0,0-3.2,3.346,2.21,2.21,0,0,0,2.346,2.384,2.883,2.883,0,0,0,1.962-.881,1.978,1.978,0,0,0-.074.459c0,.17.074.3.237.3H14.8c.2,0,.37-.215.407-.422l.755-4.76A.252.252,0,0,0,15.73,16.477Zm3,7.247,4.715-6.854a.152.152,0,0,0,.037-.126.264.264,0,0,0-.237-.259H21.822a.419.419,0,0,0-.333.185l-1.962,2.887-.814-2.776a.449.449,0,0,0-.407-.3H16.921a.264.264,0,0,0-.237.259c0,.089,1.443,4.2,1.569,4.6a19.124,19.124,0,0,0-1.517,2.339.239.239,0,0,0,.237.237h1.421A.436.436,0,0,0,18.727,23.724Zm11.792-7.9c0-1.554-1.2-2.073-2.569-2.073H25.012a.408.408,0,0,0-.407.348l-1.2,7.55a.264.264,0,0,0,.237.3H25.16a.317.317,0,0,0,.3-.237l.333-2.147c.074-.533.977-.348,1.332-.348A3.126,3.126,0,0,0,30.519,15.826Zm6.233.651H35.345c-.281,0-.3.407-.318.607a1.856,1.856,0,0,0-1.754-.74,3.3,3.3,0,0,0-3.2,3.346,2.21,2.21,0,0,0,2.346,2.384,2.8,2.8,0,0,0,1.962-.881,3.289,3.289,0,0,0-.074.459c0,.17.074.3.237.3h1.281c.2,0,.37-.215.407-.422l.755-4.76A.252.252,0,0,0,36.752,16.477Zm3.516-2.465a.249.249,0,0,0-.237-.259H38.661a.245.245,0,0,0-.237.2l-1.2,7.7-.022.037a.262.262,0,0,0,.259.259h1.221a.459.459,0,0,0,.385-.422l1.2-7.491v-.022Zm-6.662,3.834A1.6,1.6,0,0,0,32,19.475a1.085,1.085,0,0,0,1.2,1.11A1.578,1.578,0,0,0,34.8,18.994,1.1,1.1,0,0,0,33.606,17.846Z" transform="translate(0 -2.25)" fill="#fefefe"/>
</svg>
