<svg id="Twitter" xmlns="http://www.w3.org/2000/svg" width="29.721" height="24.153" viewBox="0 0 29.721 24.153">
  <path id="Twitter-2" data-name="Twitter" d="M262.281,1390.734a12.184,12.184,0,0,1-3.5.96,6.112,6.112,0,0,0,2.681-3.374,12.2,12.2,0,0,1-3.872,1.48,6.1,6.1,0,0,0-10.391,5.562,17.311,17.311,0,0,1-12.568-6.371,6.1,6.1,0,0,0,1.887,8.141,6.067,6.067,0,0,1-2.762-.763c0,.026,0,.051,0,.077a6.1,6.1,0,0,0,4.891,5.979,6.139,6.139,0,0,1-2.754.1,6.1,6.1,0,0,0,5.7,4.234,12.235,12.235,0,0,1-7.573,2.61,12.544,12.544,0,0,1-1.455-.085,17.26,17.26,0,0,0,9.347,2.739c11.216,0,17.349-9.291,17.349-17.349,0-.265-.006-.527-.018-.789A12.382,12.382,0,0,0,262.281,1390.734Z" transform="translate(-232.56 -1387.874)" fill="#fff"/>
</svg>
