<svg xmlns="http://www.w3.org/2000/svg" width="49.744" height="33.162" viewBox="0 0 49.744 33.162">
  <path id="Icon_metro-visa" data-name="Icon metro-visa" d="M45.211,28.9H42.232q.3-.8,1.425-3.865l.065-.194q.086-.216.216-.561t.194-.561l.259,1.187ZM14.035,27.5l-1.252-6.369a1.431,1.431,0,0,0-1.619-1.166H5.377l-.043.281q6.715,1.706,8.7,7.254ZM17.9,19.961l-3.5,9.457L14.035,27.5A7.85,7.85,0,0,0,12.2,24.7,8.373,8.373,0,0,0,9.372,22.79L12.286,33.8h3.778L21.7,19.962H17.9Zm3,13.861h3.584L26.73,19.961H23.146ZM37.482,20.307a8.75,8.75,0,0,0-3.217-.583A7,7,0,0,0,29.925,21a4.016,4.016,0,0,0-1.706,3.3q-.022,2.2,3.131,3.757a5.972,5.972,0,0,1,1.447.885,1.15,1.15,0,0,1,.41.842,1.08,1.08,0,0,1-.648.993,3.117,3.117,0,0,1-1.49.345,7.8,7.8,0,0,1-3.368-.712l-.475-.238-.5,3.109a9.566,9.566,0,0,0,3.994.734,7.129,7.129,0,0,0,4.5-1.274,4.245,4.245,0,0,0,1.738-3.454q0-2.289-3.023-3.757a10.434,10.434,0,0,1-1.533-.907,1.039,1.039,0,0,1-.475-.82,1.008,1.008,0,0,1,.529-.831,2.719,2.719,0,0,1,1.522-.356,6.1,6.1,0,0,1,2.677.518l.324.173Zm9.176-.345H43.894a1.834,1.834,0,0,0-1.878,1.166L36.7,33.822h3.757l.756-2.073h4.577q.108.475.432,2.073h3.325Zm5.657-6.909V40.688a2.8,2.8,0,0,1-2.764,2.764H5.334a2.656,2.656,0,0,1-1.943-.82,2.656,2.656,0,0,1-.82-1.943V13.053a2.656,2.656,0,0,1,.82-1.943,2.656,2.656,0,0,1,1.943-.82H49.551a2.8,2.8,0,0,1,2.764,2.764Z" transform="translate(-2.571 -10.289)" fill="#fefefe"/>
</svg>
